<svg width="707" height="678" viewBox="0 0 707 678" fill="none" xmlns="http://www.w3.org/2000/svg">
<g clip-path="url(#clip0_2_1051)">
<path d="M190.89 573.588C253.636 579.464 312.847 605.228 363.663 644.1C400.339 671.672 449.387 690.656 508.156 668.056C559.856 648.168 590.345 589.408 600.95 531.552C612.439 471.436 636.742 414.484 670.324 363.86C707 309.168 718.047 237.752 693.744 170.856C665.022 91.756 594.764 40.68 516.994 34.352C476.783 31.188 436.572 22.6 398.129 8.58796C366.756 -2.71204 331.406 -3.16404 297.824 9.49196C254.078 26.216 222.705 61.924 209.007 104.412C194.425 150.064 160.842 185.772 117.981 204.756C117.539 204.756 117.539 205.208 117.097 205.208C27.3962 245.436 -19.8844 349.848 8.3956 445.672C30.4893 522.512 111.352 565.904 190.89 573.588Z" fill="#DB545A"/>
</g>
<defs>
<clipPath id="clip0_2_1051">
<rect width="707" height="678" fill="white"/>
</clipPath>
</defs>
</svg>
