<svg width="64" height="64" viewBox="0 0 64 64" fill="none" xmlns="http://www.w3.org/2000/svg">
<g clip-path="url(#clip0_2_1041)">
<path d="M55.9998 6.35986H46.3998C41.9871 6.35986 38.4 9.95611 38.4 14.3728V23.9878C38.4 28.4039 41.9871 32.0001 46.3998 32.0001H55.9998C56.5471 32.0001 57.0814 31.9426 57.6 31.8364V38.4103C57.6 45.4802 51.859 51.2302 44.8002 51.2302H41.5998C39.8303 51.2302 38.4 52.6662 38.4 54.435C38.4 56.2043 39.8303 57.6404 41.5998 57.6404H44.8002C55.3887 57.6404 64.0002 49.0154 64.0002 38.4103V14.3728C64.0002 9.95611 60.4131 6.35986 55.9998 6.35986Z" fill="white"/>
<path d="M17.5998 6.35986H7.9998C3.58711 6.35986 0 9.95611 0 14.3728V23.9878C0 28.4039 3.58711 32.0001 7.9998 32.0001H17.5998C18.1471 32.0001 18.6814 31.9426 19.2 31.8364V38.4103C19.2 45.4802 13.459 51.2302 6.4002 51.2302H3.1998C1.43027 51.2302 0 52.6662 0 54.435C0 56.2043 1.43027 57.6404 3.1998 57.6404H6.4002C16.9887 57.6404 25.6002 49.0154 25.6002 38.4103V14.3728C25.6002 9.95611 22.0131 6.35986 17.5998 6.35986Z" fill="white"/>
</g>
<defs>
<clipPath id="clip0_2_1041">
<rect width="64" height="64" fill="white"/>
</clipPath>
</defs>
</svg>
